<svg width="20" height="17" viewBox="0 0 20 17" fill="none" xmlns="http://www.w3.org/2000/svg">
<path fill-rule="evenodd" clip-rule="evenodd" d="M15.2078 2.88292C13.6655 2.00191 11.8901 1.5 10 1.5C5.45455 1.5 1.57273 4.40267 0 8.5C1.01383 11.1413 2.98718 13.2861 5.4793 14.4769L7.32744 12.2744C6.19256 11.4257 5.45455 10.0508 5.45455 8.5C5.45455 5.924 7.49091 3.83333 10 3.83333C11.268 3.83333 12.4153 4.3673 13.2401 5.22802L15.2078 2.88292ZM9.84452 13.164C9.89613 13.1658 9.94796 13.1667 10 13.1667C12.5091 13.1667 14.5455 11.076 14.5455 8.5C14.5455 8.21014 14.5197 7.92643 14.4703 7.65115L17.2231 4.37051C18.4322 5.50072 19.3899 6.91046 20 8.5C18.4273 12.5973 14.5455 15.5 10 15.5C9.33 15.5 8.67442 15.4369 8.03853 15.3163L9.84452 13.164ZM12.048 6.64861C11.5487 6.06656 10.817 5.7 10 5.7C8.49091 5.7 7.27273 6.95067 7.27273 8.5C7.27273 9.48855 7.76865 10.3555 8.51965 10.8536L12.048 6.64861Z" fill="#B5B5B5"/>
<path d="M16 1.5L4.42982 15.2888" stroke="#B5B5B5" stroke-width="2" stroke-linecap="round"/>
</svg>
