<svg width="35" height="22" viewBox="0 0 35 22" fill="none" xmlns="http://www.w3.org/2000/svg">
<path d="M21.9271 2.28906H12.5938V19.0613H21.9271V2.28906Z" fill="#FF5F00"/>
<path d="M13.1843 10.6666C13.1828 9.05136 13.5489 7.45691 14.2547 6.004C14.9605 4.55109 15.9877 3.2778 17.2583 2.28053C15.6848 1.04369 13.795 0.274512 11.805 0.0609202C9.81493 -0.152671 7.80496 0.197932 6.00477 1.07267C4.20459 1.94741 2.68682 3.311 1.62496 5.00755C0.563103 6.70411 0 8.66519 0 10.6666C0 12.6681 0.563103 14.6292 1.62496 16.3257C2.68682 18.0223 4.20459 19.3859 6.00477 20.2606C7.80496 21.1354 9.81493 21.486 11.805 21.2724C13.795 21.0588 15.6848 20.2896 17.2583 19.0528C15.9877 18.0555 14.9605 16.7822 14.2547 15.3293C13.5489 13.8764 13.1828 12.2819 13.1843 10.6666Z" fill="#EB001B"/>
<path d="M34.5195 10.6666C34.5196 12.6681 33.9566 14.6292 32.8948 16.3257C31.833 18.0223 30.3152 19.3858 28.5151 20.2606C26.7149 21.1353 24.705 21.486 22.715 21.2724C20.725 21.0588 18.8352 20.2896 17.2617 19.0528C18.5313 18.0545 19.5576 16.781 20.2633 15.3283C20.969 13.8756 21.3357 12.2817 21.3357 10.6666C21.3357 9.05162 20.969 7.45766 20.2633 6.00498C19.5576 4.5523 18.5313 3.27881 17.2617 2.28053C18.8352 1.04368 20.725 0.274506 22.715 0.0609174C24.705 -0.152672 26.7149 0.197947 28.5151 1.0727C30.3152 1.94745 31.833 3.31103 32.8948 5.00759C33.9566 6.70414 34.5196 8.66522 34.5195 10.6666Z" fill="#F79E1B"/>
</svg>
