<svg width="32" height="12" viewBox="0 0 32 12" fill="none" xmlns="http://www.w3.org/2000/svg">
<path fill-rule="evenodd" clip-rule="evenodd" d="M22.8586 8.19781C22.8647 6.48693 21.5585 5.74269 20.5123 5.14817C19.8115 4.74853 19.2264 4.41714 19.2366 3.90409C19.2447 3.51546 19.587 3.1004 20.3335 2.99691C21.2079 2.90583 22.0887 3.07243 22.883 3.47913L23.337 1.18034C22.5637 0.865386 21.7447 0.702462 20.9186 0.699219C18.3631 0.699219 16.5642 2.17119 16.548 4.27952C16.5317 5.83847 17.8329 6.70932 18.812 7.22787C19.8196 7.75963 20.1568 8.09983 20.1538 8.57544C20.1538 9.30207 19.3493 9.62134 18.6058 9.63455C17.3443 9.65547 16.5967 9.27674 16.0036 8.97729L15.9518 8.95086L15.4835 11.3245C16.0879 11.624 17.2031 11.886 18.358 11.8992C21.075 11.8992 22.8515 10.4438 22.8606 8.19341L22.8586 8.19781ZM12.1499 0.901794L7.96115 11.7352H5.22787L3.16597 3.08829C3.04003 2.55543 2.93236 2.36166 2.55045 2.13596C1.93087 1.77045 0.903983 1.42805 0 1.21447L0.0609426 0.894088H4.45999C4.74648 0.89512 5.02324 1.00689 5.24051 1.2093C5.45779 1.41171 5.60133 1.69149 5.64533 1.99834L6.73417 8.26057L9.42479 0.887481L12.1499 0.901794ZM32 11.7253H29.609L29.2972 10.1146H25.9789L25.4405 11.733H22.7245L26.6045 1.69448C26.6924 1.45649 26.8443 1.25267 27.0405 1.10953C27.2367 0.966388 27.4681 0.890552 27.7046 0.891886H29.9117L31.999 11.7253H32ZM26.7254 7.88624L28.0865 3.81932L28.8625 7.89615L26.7254 7.88624ZM13.7091 11.7253L15.8471 0.891886H13.2581L11.12 11.7253H13.7091Z" fill="#0C54A8"/>
</svg>
